<svg width="87" height="50" viewBox="0 0 87 50" fill="none" xmlns="http://www.w3.org/2000/svg">
<g clip-path="url(#clip0)">
<path d="M5.64209 0.183724C5.03246 0.367228 4.57765 0.618338 4.23897 1.03364C3.75514 1.61312 3.73578 1.70005 3.77449 3.42885C3.79384 4.42363 3.79384 6.18141 3.77449 7.36935C3.75514 9.49414 3.75514 9.49414 3.35839 9.36858C2.56491 9.09815 0.668278 9.22371 0.348948 9.5714C0.0780012 9.86114 0.0780012 9.86114 0.387655 9.7549C0.619895 9.6873 0.697308 9.71627 0.639248 9.86114C0.600541 9.9867 0.455391 10.0736 0.348948 10.0446C0.223151 10.0253 0.145738 10.3537 0.145738 10.9429C0.145738 11.4644 0.0876778 12.1887 0.0392945 12.5268C-0.0284422 13.029 0.0392945 13.2511 0.416685 13.6471C0.852135 14.1107 0.997285 14.1493 2.29396 14.1493C3.50354 14.1493 3.71643 14.2073 3.79384 14.4584C3.90029 14.8737 3.77449 35.4261 3.66805 35.7159C3.60999 35.8801 3.20357 35.9477 2.41976 35.9477C1.63595 35.9477 1.06502 36.0539 0.706985 36.2567C0.165091 36.5851 0.145738 36.6141 0.126385 38.0242C0.0876778 40.8926 0.165091 40.9989 2.43911 40.9989H3.95835L3.90029 44.4565C3.83255 49.3242 3.96802 49.5366 7.47098 49.7298C12.6673 50.0002 27.8791 50.1065 30.3757 49.894C31.2466 49.8264 32.0207 49.8071 32.8626 49.8264C34.0334 49.8457 34.3237 49.8264 34.5366 49.6236C34.7205 49.4787 34.7882 49.4787 34.7882 49.6236C34.7882 49.7298 34.8753 49.8264 34.9721 49.8264C35.0785 49.8264 35.1559 49.6622 35.1559 49.4497C35.1559 49.2469 35.0882 49.1407 34.9721 49.1986C34.885 49.2565 34.7882 49.2179 34.7882 49.1117C34.7882 48.7833 35.2237 49.0054 35.4172 49.4401C35.6011 49.836 35.6494 49.836 39.6556 49.836C41.8909 49.836 44.9584 49.894 46.4776 49.9423C50.5709 50.1065 56.9865 49.8747 56.9865 49.5463C56.9865 49.4014 57.0736 49.2952 57.1897 49.2952C57.2962 49.2952 57.3542 49.4207 57.2768 49.5656C57.2091 49.7974 57.4026 49.836 58.5735 49.836C59.3283 49.8554 63.4989 49.8747 67.8534 49.894C72.1885 49.9133 75.6818 49.8747 75.6334 49.7878C75.5947 49.7201 75.6915 49.6622 75.8463 49.6622C76.0302 49.6622 76.0786 49.7491 76.0108 49.8747C75.7979 50.2127 80.5202 49.9326 81.3136 49.5366C82.6297 48.8895 82.7071 48.6191 82.7168 44.7076C82.7361 42.776 82.7845 41.0858 82.8619 40.9216C82.9296 40.7091 83.0748 40.6705 83.3651 40.7574C83.8876 40.9409 85.852 40.8443 86.2197 40.6512C86.452 40.5063 86.4326 40.487 86.1617 40.4677C85.9585 40.4677 85.852 40.3808 85.9101 40.2359C85.9488 40.1296 86.0746 40.0331 86.1617 40.0524C86.3939 40.1103 86.5778 37.2226 86.3745 36.8652C85.9391 36.0926 85.8714 36.0539 84.2263 35.967L82.5813 35.8801L82.5426 25.0147L82.4845 14.1687H84.0909C85.5714 14.1687 85.6972 14.13 86.1326 13.6664C86.51 13.2705 86.5874 13.058 86.51 12.5461C86.452 12.2081 86.4036 11.4837 86.4036 10.9815C86.4036 10.373 86.3358 10.0446 86.2004 10.0833C86.0939 10.1026 85.9488 10.0157 85.9101 9.88046C85.852 9.73559 85.9294 9.69696 86.1617 9.77422C86.452 9.88046 86.452 9.86114 86.2197 9.61003C85.9294 9.30097 84.1489 9.1561 83.3361 9.37824C82.5232 9.59072 82.4555 9.39756 82.3394 6.15243C82.1362 1.13988 81.7588 0.425176 79.2912 0.492783C78.5655 0.512099 77.8881 0.473467 77.772 0.425176C77.5785 0.25133 74.5109 0.0388521 72.9627 0.0388521C72.3627 0.0581683 71.3176 0.0581683 70.6209 0.0581683C69.9339 0.0581683 66.3632 0.0968007 62.6764 0.116117C59.0089 0.135433 55.3124 0.174066 54.4609 0.20304C53.6093 0.232014 52.5643 0.270647 52.1191 0.260988C45.1132 0.154749 39.3072 0.116117 38.9976 0.193382C38.7653 0.25133 38.6008 0.35757 38.6395 0.425176C38.6589 0.492783 38.6008 0.570048 38.4944 0.589364C38.4073 0.627996 38.3105 0.531415 38.3105 0.40586C38.3105 0.241672 37.4396 0.193382 34.614 0.193382C31.7401 0.193382 30.9369 0.25133 30.9466 0.40586C30.9853 0.531415 30.8788 0.637655 30.7143 0.637655C30.5692 0.637655 30.4821 0.570048 30.5305 0.473467C30.7434 0.145091 29.5725 0.0968007 21.3473 0.0968007C16.7799 0.0968007 11.5836 0.0581683 9.79338 0.029194C7.42259 -0.0287546 6.29042 0.0195359 5.64209 0.183724ZM42.3263 5.06107C67.0309 5.0997 75.2077 5.04175 75.2077 4.89688C75.2077 4.73269 75.2657 4.75201 75.3528 4.89688C75.4206 5.02243 75.8947 5.14799 76.3785 5.16731L77.2785 5.22525L77.2978 6.12346C77.3365 7.56252 77.5688 22.1173 77.5494 22.4263C77.4914 23.962 77.5494 35.542 77.6365 39.5791C77.7236 43.6162 77.7042 44.7655 77.5301 44.8718C77.4043 44.9394 76.7172 44.978 76.0302 44.9587C74.6948 44.9007 69.8178 44.9007 51.1224 44.9201C41.4264 44.9394 40.1684 44.978 40.2555 45.2098C40.3233 45.3933 40.2362 45.4802 40.0039 45.4802C39.7717 45.4802 39.6749 45.3933 39.7523 45.2098C39.8394 44.978 38.7073 44.9587 30.6756 44.9587C25.6438 44.978 20.0313 45.0263 18.2024 45.0842C16.3929 45.1519 14.922 45.1519 14.922 45.0649C14.922 44.8525 14.293 44.9201 14.0511 45.1519C13.8866 45.316 13.7802 45.3354 13.6931 45.1905C13.6253 45.0456 12.7544 44.978 11.332 44.9587C10.103 44.9394 9.01924 44.8911 8.95151 44.8331C8.86442 44.7752 8.787 44.0991 8.787 43.2878C8.787 42.0806 8.7483 41.8681 8.51606 41.955C8.3322 42.0226 8.24511 41.9357 8.24511 41.7039C8.24511 41.4721 8.3322 41.3755 8.51606 41.4528C8.7483 41.5397 8.787 40.7478 8.80636 35.0205C8.87409 13.4733 8.87409 13.7244 8.6225 13.6375C8.47735 13.5795 8.43864 13.5119 8.56444 13.4346C8.83539 13.2705 8.87409 11.0974 8.6225 10.2958C8.4967 9.93841 8.458 9.54243 8.55476 9.41687C8.6225 9.29132 8.69991 8.27722 8.73862 7.20517C8.75797 6.10414 8.77733 5.11901 8.77733 4.97414C8.79668 4.80996 8.90312 4.77132 9.11601 4.88722C9.28051 4.95483 24.231 5.04175 42.3263 5.06107Z" fill="white"/>
<path d="M66.0628 9.60016L62.2212 9.63879L61.5148 10.3245C60.9148 10.904 60.7891 11.1358 60.702 11.9857C60.4988 13.6952 60.4988 16.0904 60.6633 19.915C60.7503 21.9529 60.8084 23.9328 60.7697 24.3288C60.731 24.7247 60.702 28.0375 60.702 31.7172L60.6826 38.3813L61.1181 39.0863C61.3503 39.463 61.8051 39.8783 62.1244 40.0232C62.8502 40.3322 70.098 40.3998 71.056 40.1101C71.9366 39.8397 72.643 38.9415 72.7494 37.9467C72.9333 36.1986 72.8559 22.8897 72.6623 22.3875L72.4591 21.9046H69.9819C68.3078 21.9046 67.4369 21.9722 67.2918 22.1171C67.1466 22.2619 67.0789 22.967 67.0789 24.0583V25.7871L67.6208 26.0962L68.1627 26.4246L68.182 28.4431C68.182 29.5635 68.182 31.3599 68.1627 32.4802C68.1433 33.6875 68.2207 34.6243 68.3465 34.8175C68.4917 35.0493 68.511 35.281 68.3659 35.6287C68.182 36.1116 68.1627 36.1116 66.8176 36.044C65.279 35.9764 64.9984 35.8605 65.279 35.5032C65.4822 35.2521 65.5693 22.6579 65.4048 16.7375L65.3177 13.8401L66.6144 13.7725C68.5497 13.6855 68.5304 13.6662 68.5304 14.9604C68.5304 15.5882 68.6175 16.1677 68.7433 16.2932C68.9078 16.4574 68.9078 16.5057 68.7433 16.5057C68.3465 16.5057 68.511 17.0079 68.9465 17.1045C69.5948 17.2301 72.1398 17.1238 72.3236 16.9403C72.3914 16.8534 72.5075 15.4626 72.5559 13.8401L72.6236 10.8847L72.1204 10.3825C71.685 9.94785 71.3076 9.80298 70.098 9.60981C69.9819 9.57118 68.153 9.57118 66.0628 9.60016ZM14.4862 9.94785C14.3217 10.112 14.2733 11.1358 14.3217 13.6372C14.3797 17.6743 14.3604 17.3653 14.5733 17.0272C14.7184 16.8148 14.7571 16.863 14.7571 17.2397C14.7571 17.4908 14.67 17.7419 14.5442 17.7806C14.3797 17.8385 14.3314 18.6112 14.3314 20.4655C14.312 22.7159 14.2733 23.1312 14.0023 23.4016C13.7314 23.6527 13.6733 24.0487 13.6733 25.7099C13.6733 26.8109 13.7314 27.6511 13.7991 27.6029C13.9636 27.4387 14.5733 27.9988 14.5733 28.3272C14.5733 28.4528 14.5152 28.559 14.4475 28.559C14.3604 28.559 14.283 31.0315 14.2443 34.0545C14.2249 37.0775 14.283 39.5499 14.3507 39.5499C14.4378 39.5499 14.6023 39.7528 14.7087 40.0039C14.912 40.4385 14.9797 40.4578 16.7118 40.4578C19.3826 40.4578 19.2374 40.7862 19.189 34.2283C19.1503 31.3599 19.1213 28.9357 19.0826 28.8391C18.8794 28.0664 18.9762 28.0278 21.5405 28.0278C24.3177 28.0278 25.3628 27.825 25.9821 27.1779L26.3982 26.724L26.4562 18.9106C26.4949 13.6469 26.4369 10.9619 26.3111 10.7302C25.8563 9.89956 25.3724 9.83195 19.8664 9.774C16.0538 9.74503 14.6217 9.78366 14.4862 9.94785ZM21.6082 14.265C21.6276 14.4485 21.6276 16.3705 21.6469 18.5532C21.6469 20.7359 21.705 22.3682 21.734 22.1943C21.8792 21.6535 22.1501 21.8659 22.1501 22.5324C22.1501 23.0539 22.092 23.1601 21.8598 23.0732C21.6566 23.0056 21.6082 23.0539 21.6759 23.2857C21.763 23.5561 21.6566 23.5947 20.5728 23.5368C19.8858 23.4982 19.2761 23.3533 19.131 23.2277C18.8407 22.938 18.8213 22.4165 19.0923 22.4165C19.2181 22.4165 19.2568 21.1512 19.1794 18.2924C19.1407 16.0228 19.1407 14.1105 19.1987 14.0622C19.2665 14.0043 19.8277 13.956 20.4664 13.956C21.434 13.9656 21.6082 14.0139 21.6082 14.265ZM29.9301 9.8899C29.6205 10.2472 29.7269 14.2457 30.0559 14.1781C30.1624 14.1588 30.2688 14.265 30.2688 14.4099C30.2688 14.5548 30.1624 14.661 30.0559 14.6224C29.8914 14.6031 29.8043 14.8928 29.7656 15.5399C29.7269 16.2932 29.7656 16.4767 29.9495 16.3705C30.1334 16.2642 30.1334 16.2836 29.9882 16.496C29.6979 16.8727 29.5044 37.2803 29.7753 38.4875C29.9398 39.1346 30.1334 39.4823 30.5882 39.801L31.1881 40.2646L35.92 40.197C41.1938 40.1294 41.5712 40.0328 42.1421 38.9318C42.5389 38.1592 42.7034 32.0842 42.6066 21.5086C42.5679 17.2011 42.5388 12.9129 42.5388 12.0147C42.5388 10.9716 42.4711 10.3052 42.3356 10.2086C42.2098 10.1507 42.084 10.1893 42.0453 10.2955C41.9583 10.6046 41.6486 10.566 41.6486 10.2376C41.6486 10.0251 41.3583 9.96716 40.11 9.96716C37.6328 9.96716 37.8166 9.36836 37.836 17.6743C37.8553 21.5086 37.9037 25.7292 37.9618 27.0234C38.0489 28.7329 38.0198 29.4186 37.8747 29.4186C37.5457 29.4186 37.6425 30.1043 38.0005 30.2975C38.2134 30.4423 38.2521 30.5293 38.0876 30.6258C37.9618 30.7321 37.8553 31.6206 37.8166 33.2335C37.7586 35.3197 37.7102 35.7543 37.4392 36.0247C37.1296 36.3338 37.1006 36.3338 36.878 36.0247C36.607 35.6867 35.8523 35.6287 35.3104 35.9185C34.7685 36.1889 34.2072 35.6674 34.3524 35.0203C34.4782 34.4794 34.5653 19.5287 34.4782 14.1105L34.4104 10.4018L33.6363 9.98648C33.1138 9.69674 32.7364 9.5905 32.5138 9.69674C32.1751 9.84161 30.9656 9.84161 30.443 9.67742C30.2785 9.67742 30.0559 9.74503 29.9301 9.8899ZM46.0128 9.87058C45.8096 10.141 45.7418 16.6795 45.945 17.5584C46.0321 17.8965 46.0321 18.7464 45.9837 19.4514C45.916 20.1565 45.9257 20.8036 46.0224 20.9291C46.2547 21.2189 46.0225 21.8853 45.6934 21.8853C45.5483 21.8853 45.4806 21.9722 45.5289 22.0688C45.587 22.175 45.5096 22.3778 45.3644 22.5324C45.0354 22.8607 44.9483 25.3815 45.258 25.5747C45.3644 25.6326 45.4418 25.8451 45.4418 26.0286C45.4418 26.2121 45.5289 26.3859 45.6451 26.4246C45.8096 26.4825 45.8579 28.0954 45.8579 32.3353C45.8386 35.7253 45.916 38.2751 46.0224 38.4103C46.1095 38.5165 46.1095 38.6614 46.0418 38.7C45.9547 38.758 45.916 39.1346 45.9547 39.5306L46.0224 40.2646L50.8414 40.2067C58.0215 40.1487 57.6054 40.6606 57.6248 31.7945C57.6248 25.8354 57.6054 25.565 57.2667 25.198C56.183 24.0294 56.0572 23.8072 56.3475 23.6527C57.0732 23.2567 57.2474 22.4261 57.2861 19.7218C57.3055 18.2828 57.3442 15.6654 57.3732 13.9077C57.4313 10.8847 57.4119 10.6819 57.0442 10.3438C56.4829 9.78366 55.6411 9.67742 50.7447 9.6581C47.3288 9.6581 46.1579 9.69674 46.0128 9.87058ZM52.7671 13.9849C52.8735 14.1684 52.8735 15.5302 52.7671 20.8132C52.7477 22.1267 52.6606 22.204 51.3059 21.9818L50.5318 21.8756L50.4253 20.311C50.3673 19.4418 50.3189 18.6208 50.2995 18.476C50.2995 18.3311 50.3576 17.2107 50.4253 15.9938L50.5511 13.7918H51.5962C52.1671 13.7821 52.6897 13.869 52.7671 13.9849ZM52.6897 26.6467C52.7574 26.7529 52.8348 28.1437 52.8348 29.7276C52.8348 31.3116 52.8542 33.3494 52.8542 34.2669C52.8735 35.1651 52.8348 35.9957 52.7671 36.0827C52.6219 36.3145 50.7447 36.2275 50.435 35.9571C50.2318 35.7929 50.2028 35.5804 50.3092 35.0879C50.3963 34.7305 50.4737 32.6927 50.4737 30.5486C50.4737 27.1972 50.5124 26.637 50.764 26.4632C51.1027 26.2121 52.4961 26.3376 52.6897 26.6467Z" fill="white"/>
</g>
<defs>
<clipPath id="clip0">
<path d="M0 0H86.5385V50H0V0Z" fill="white"/>
</clipPath>
</defs>
</svg>
