<svg width="1440" height="831" version="1" xmlns="http://www.w3.org/2000/svg" xmlns:xlink="http://www.w3.org/1999/xlink"><defs><linearGradient x1="0%" y1="50%" y2="50%" id="a"><stop stop-color="#DB1D5F" offset="0%"/><stop stop-color="#FF8906" offset="100%"/></linearGradient><path d="M32 0C15 0 1 14 1 31c0 12 5 27 15 45 5 8 10 17 16 24h1l15-26c11-19 16-33 16-43C64 14 50 0 32 0zm0 47z" id="b"/><linearGradient x1="0%" y1="50%" y2="50%" id="c"><stop stop-color="#DB1C60" offset="0%"/><stop stop-color="#FF8905" offset="100%"/></linearGradient><path d="M77 1v6c0 5-5 10-10 10h-2c-5 0-9-5-9-10V1H38v6c0 5-5 10-10 10h-2c-5 0-9-5-9-10V1H8C4 1 0 5 0 9v71c0 4 4 8 8 8h77c5 0 8-4 8-8V9c0-5-3-8-8-8h-8zM12 72V33c0-2 2-4 4-4h61c2 0 4 2 4 4v39c0 2-2 4-4 4H16c-2 0-4-2-4-4z" id="e"/><linearGradient x1="0%" y1="50%" y2="50%" id="f"><stop stop-color="#DB1C60" offset="0%"/><stop stop-color="#FF8905" offset="100%"/></linearGradient></defs><g fill="none" fill-rule="evenodd"><path fill="#1A1A1A" d="M0 0h1440v831H0z"/><rect fill="#FFF" x="46" y="79" width="1331" height="704" rx="11"/><path d="M746 80h619c6 0 12 5 12 11v680c0 6-6 12-12 12H59c-7 0-12-6-12-12V91c0-6 5-11 12-11h50" fill="#FFF"/><path d="M700 1h619c6 0 12 5 12 11v680c0 6-6 12-12 12H13c-7 0-12-6-12-12V12C1 6 6 1 13 1h50" stroke="url(#a)" stroke-width="15" stroke-linecap="round" stroke-linejoin="round" transform="translate(46 79)"/><path d="M146 79c-4 0-8-1-11-3-2-2-4-5-4-9V48l1-1h10l1 1v19l1 2 2 1 3-1 1-2V48v-1h11v20c0 4-1 7-4 9s-6 3-11 3zm21 0h-1V48v-1h15c4 0 8 1 10 3 3 2 4 4 4 8s-1 6-4 8c-2 2-6 3-10 3h-3v9l-1 1h-10zm14-19h1l1-2-1-2-1-1h-3v5h3zm32 19c-5 0-8-1-11-3s-4-5-5-9a124 124 0 0 1 0-8c1-4 2-7 5-10 3-2 6-3 11-3l7 2c3 0 5 2 6 3 2 2 2 4 2 7v1h-11l-1-1-1-2-2-1-3 1-1 3a114 114 0 0 0 0 8l1 3h3c2 0 3 0 3-2l1-1h11v1c0 2 0 5-2 6-1 2-3 3-6 4l-7 1zm34 0c-5 0-9-1-11-3-3-2-5-5-5-9a122 122 0 0 1 0-8l2-7 6-4 8-2 7 2 6 4 2 7a121 121 0 0 1 0 8c0 4-2 7-4 9-3 2-7 3-11 3zm0-9h2l1-3a127 127 0 0 0 0-8l-1-3-2-1-3 1-1 3a114 114 0 0 0 0 8l1 3h3zm20 9h-1V48v-1h9l2 1 6 11 7-11 2-1h8v32h-9-1V65l-3 5-1 1h-5l-1-1-3-5v14h-10zm40 0h-1V48v-1h11v32h-10zm17 0h-1l-1-1V48l1-1h8l2 1 8 13V48v-1h10v32h-9l-1-1-8-12v13h-9zm47 0c-5 0-8-1-11-3s-4-5-4-9a126 126 0 0 1 0-8c0-4 1-7 4-10 3-2 6-3 11-3l8 2 6 3 2 6-1 1h-10l-2-1-1-1-2-1c-2 0-3 1-3 4a116 116 0 0 0 0 8c0 2 1 3 3 3h3l1-3h-2-1v-6-1h15v7l-2 7c-1 2-3 3-6 4l-8 1zm43 0c-4 0-8-1-11-3s-4-5-4-9a124 124 0 0 1 0-8c0-4 2-7 4-10a22 22 0 0 1 19-2l6 4 2 7-1 1h-10-1v-1l-2-2-2-1-2 1-1 3a114 114 0 0 0 0 8l1 3h2c2 0 3 0 4-2v-1h11l1 1-2 6-6 4-8 1zm34 0c-5 0-8-1-11-3s-4-5-4-9a122 122 0 0 1 0-8c0-3 0-5 2-7l5-4 8-2 8 2 5 4 2 7a121 121 0 0 1 0 8c0 4-1 7-4 9s-6 3-11 3zm0-9h2l1-3a127 127 0 0 0 0-8l-1-3-2-1-3 1v3a114 114 0 0 0 0 8v3h3zm21 9h-1V48v-1h8l2 1 8 13V48v-1h10v32h-9l-1-1-8-12v13h-9zm34 0h-1V48v-1h25v9h-14v4h13v9h-13v9l-1 1h-9zm30 0h-1l-1-1V48l1-1h25v8l-1 1h-14v3h14v8h-14v3h15l1 1v7l-1 1h-24zm30 0h-1V48v-1h15c4 0 8 1 10 3 3 2 4 4 4 8a10 10 0 0 1-5 9l6 10v1l-1 1h-10a2 2 0 0 1-2-1l-4-9h-2v10h-10zm14-19h1l1-2-1-2-1-1h-4v5h4zm19 19l-1-1V48l1-1h25v8l-1 1h-14v3h14v8h-14v3h15l1 1v7l-1 1h-25zm31 0h-1V48v-1h8l2 1 8 13V48v-1h10l1 1v30l-1 1h-8-1l-1-1-7-12v12l-1 1h-9zm47 0c-4 0-8-1-11-3-2-2-4-5-4-9a124 124 0 0 1 0-8c0-4 2-7 5-10 2-2 6-3 10-3l8 2 6 3 2 7v1h-12v-1l-1-2-3-1-2 1-1 3a114 114 0 0 0 0 8l1 3h2c2 0 3 0 4-2v-1h12v1l-2 6-6 4-8 1zm21 0h-1V48v-1h25l1 1v7h-1l-1 1h-13v3h13l1 1v6l-1 1h-13v3h15v9h-25z" fill="#FF8900"/><g transform="translate(143 448)"><mask id="d" fill="#fff"><use xlink:href="#b"/></mask><path d="M32 0C15 0 1 14 1 31c0 12 5 27 15 45 5 8 10 17 16 24h1l15-26c11-19 16-33 16-43C64 14 50 0 32 0zm0 47z" fill="url(#c)" mask="url(#d)"/></g><g transform="translate(129 611)"><mask id="g" fill="#fff"><use xlink:href="#e"/></mask><path d="M77 1v6c0 5-5 10-10 10h-2c-5 0-9-5-9-10V1H38v6c0 5-5 10-10 10h-2c-5 0-9-5-9-10V1H8C4 1 0 5 0 9v71c0 4 4 8 8 8h77c5 0 8-4 8-8V9c0-5-3-8-8-8h-8zM12 72V33c0-2 2-4 4-4h61c2 0 4 2 4 4v39c0 2-2 4-4 4H16c-2 0-4-2-4-4z" fill="url(#f)" mask="url(#g)"/></g>
<circle fill="#FFF" cx="175" cy="480" r="15"/>

<text font-family="Rubik-Bold, Rubik" font-size="105" font-weight="bold" letter-spacing="-2" fill="#FF8900">
  <tspan x="133" y="274">Front-End Design </tspan>
  <tspan x="133" y="370">Event</tspan>
</text>
<text font-family="Rubik-Bold, Rubik" font-size="68" font-weight="bold" letter-spacing="-2" fill="#000">
  <tspan x="255" y="520">St. Petersburg, Florida</tspan>
</text>
<text font-family="Rubik-Bold, Rubik" font-size="48" font-weight="bold" letter-spacing="-1" fill="#000">
  <tspan x="255" y="672">April 25th, 2019 – April 26th, 2019</tspan>
</text>
</g></svg>

